# xmcd CD database file
# 
# Track frame offsets:
# 	150
# 	10522
# 	20994
# 	31670
# 	43058
# 	55560
# 	67932
# 	80459
# 	92021
# 	101948
# 	114635
# 	126857
# 	138929
# 	149676
# 	161543
# 	172029
# 	184017
# 	194764
# 	207661
# 	219920
# 	233311
# 
# Disc length: 3292 seconds
# 
# Submitted via: Nero 5.5.3.2
# 
# Revision: 0
# Processed by: cddbd v1.4PL0 Copyright (c) Steve Scherf et al.
#
DISCID=260cda15
DTITLE=Jimmy Reed - The Blues...
DYEAR=1900
DGENRE=
TTITLE0=I Told You Baby
TTITLE1=Take Out Some Insurance
TTITLE2=Baby, What You Want Me To Do
TTITLE3=Hush-Hush
TTITLE4=Big Boss Man
TTITLE5=Tell Me You Love Me
TTITLE6=I Found My Baby
TTITLE7=She Don't Go For That
TTITLE8=Ain't That Lovin' You Baby
TTITLE9=You Got My Dizzy
TTITLE10=Do The Thing
TTITLE11=Honest I Do
TTITLE12=Down In Virginia
TTITLE13=I'm Gonna Get My Baby
TTITLE14=I Wanna Be Loved
TTITLE15=Bright Lights, Big City
TTITLE16=Aw Shucks, Hush Your Mouth
TTITLE17=Let's Get Together
TTITLE18=When You're Doing All Right
TTITLE19=I'm Going Upside Your Head
TTITLE20=I'm The Man Down There
EXTD=
EXTT0=
EXTT1=
EXTT2=
EXTT3=
EXTT4=
EXTT5=
EXTT6=
EXTT7=
EXTT8=
EXTT9=
EXTT10=
EXTT11=
EXTT12=
EXTT13=
EXTT14=
EXTT15=
EXTT16=
EXTT17=
EXTT18=
EXTT19=
EXTT20=
PLAYORDER=
